<?xml version="1.0" encoding="utf-8"?>
<!-- Generator: Adobe Illustrator 17.0.0, SVG Export Plug-In . SVG Version: 6.00 Build 0)  -->
<!DOCTYPE svg PUBLIC "-//W3C//DTD SVG 1.1//EN" "http://www.w3.org/Graphics/SVG/1.1/DTD/svg11.dtd">
<svg version="1.1" id="Слой_1" xmlns="http://www.w3.org/2000/svg" xmlns:xlink="http://www.w3.org/1999/xlink" x="0px" y="0px"
	 width="201.99px" height="59.48px" viewBox="0 0 201.99 59.48" enable-background="new 0 0 201.99 59.48" xml:space="preserve">
<g>
	<defs>
		<rect id="SVGID_1_" y="0" width="201.99" height="59.48"/>
	</defs>
	<clipPath id="SVGID_2_">
		<use xlink:href="#SVGID_1_"  overflow="visible"/>
	</clipPath>
	<path clip-path="url(#SVGID_2_)" fill="#FDC305" d="M59.885,23.994c-5.453-13.049-20.451-19.209-33.5-13.756
		c-13.05,5.451-19.209,20.45-13.757,33.5c3.586,8.584,11.303,14.186,19.879,15.463c-0.58-2.09-1.163-4.4-1.692-6.855
		c1.499,0.991,3.089,1.805,4.77,2.555c-0.007,0.004-0.014,0.006-0.021,0.01c0,0,0.119,2.157,0.28,4.566
		c1.773,0.029,3.564-0.127,5.347-0.479c-0.043-0.157-0.043-0.405,0.011-0.761c0.287-1.863,1.093-5.237,1.249-7.408
		c1.129-1.064,2.138-2.326,2.9-3.713c-0.002,0.012-0.003,0.025-0.004,0.037c-0.018,0.143-0.036,0.288-0.055,0.433
		c-0.554,4.265-1.704,8.814-2.403,10.071c-0.243,0.438-0.546,0.859-0.83,1.154c1.368-0.321,2.729-0.757,4.068-1.317
		C59.177,52.042,65.336,37.044,59.885,23.994 M58.406,27.78c-0.434,0.434-1.349,0.723-1.494-0.578
		c-0.144-1.301-0.193-2.217-0.193-2.217s-1.927-3.421-2.65-3.47c-0.723-0.047-5.831,3.47-7.18,4.964
		c-1.165,1.289-1.398,1.205-1.398,3.47c0,1.713,0.221,8.166,0.099,13.108c0,0-2.171,0.578-8.146,2.168
		c-5.976,1.59-7.807,1.783-7.807,1.783l-1.012-5.831h-0.002c-0.006-0.001-0.019-0.004-0.04-0.007c-0.001,0-0.002,0-0.002-0.001
		c-0.01-0.001-0.022-0.003-0.035-0.005c-0.015-0.002-0.031-0.004-0.049-0.006l-2.57-13.185c0,0-3.808-1.446-5.205-1.831
		c-1.398-0.386-2.265-0.675-4.048,0.626c-1.783,1.302-1.735,3.855-1.735,3.855s0.434,0.964,0.482,1.446
		c0.048,0.482-1.205,0.434-2.024,0.434s-0.916-1.446-0.289-3.133c0.626-1.686,1.927-3.71,1.927-3.71s1.205-2.265,2.073-2.892
		c0,0,0.144-0.337,1.253-0.24c1.108,0.096,7.276,0.433,7.276,0.433l0.054-2.275c6.692-0.912,13.489-1.374,20.244-1.336
		c-0.01,0.608-0.029,1.218-0.058,1.828c0,0,4.385-2.024,8.144-1.976c0,0,0.434-0.048,0.771,0.386
		c0.337,0.434,2.409,2.988,2.651,3.373c0.24,0.386,1.204,1.735,1.831,3.036C59.274,25.997,58.84,27.346,58.406,27.78"/>
	<path clip-path="url(#SVGID_2_)" fill="#F06351" d="M56.455,21.673c0.474,0.598,0.887,1.129,0.987,1.289
		c0.241,0.385,1.205,1.734,1.831,3.036c0,0-0.433,1.349-0.867,1.782c-0.434,0.435-1.349,0.724-1.494-0.578
		c-0.145-1.301-0.193-2.216-0.193-2.216s-1.928-3.422-2.65-3.47c-0.723-0.048-5.831,3.47-7.18,4.964
		c-1.165,1.289-1.398,1.204-1.398,3.469c0,1.502,0.17,6.65,0.129,11.226c1.81,0.209,4.466,0.71,5.268,1.882
		c0,0-0.289-7.18,7.807-3.422c0,0,0.289-9.782,11.469-7.276C70.164,32.359,64.496,25.4,56.455,21.673"/>
	<path clip-path="url(#SVGID_2_)" fill="#F06351" d="M45.935,19.351c0.146-8.514-1.407-16.532-1.407-16.532
		s-0.145-1.301-0.868-0.241s-1.204,3.951-1.204,3.951c-7.47-0.433-12.819,0.338-12.819,0.338c-0.819-2.747-2.217-3.952-2.891-3.663
		c-0.675,0.289-0.723,3.325-0.723,3.325l-0.332,14.158C32.383,19.775,39.181,19.313,45.935,19.351"/>
	<path clip-path="url(#SVGID_2_)" fill="#E55645" d="M45.351,47.117c0.126-1.065,0.2-2.485,0.239-4.06c0,0-2.171,0.579-8.146,2.168
		c-5.976,1.59-7.807,1.784-7.807,1.784l1.109,5.011c0.022,0.11,0.046,0.218,0.069,0.326c1.499,0.992,3.089,1.805,4.77,2.555
		c4.372-2.164,6.87-4.134,6.87-4.134c-0.001,0.021-0.002,0.041-0.004,0.063C43.58,49.765,44.589,48.504,45.351,47.117"/>
	<path clip-path="url(#SVGID_2_)" d="M31.998,16.215c-0.046-0.091,1.026,0.684,1.412,0.924c0.385,0.242,0.612,0.426,0.612,0.594
		c0,0.169-0.265,0.337-0.627,0.337c-0.361,0-0.915-0.12-0.963-0.265c0,0,0.602-0.024,0.94-0.024h0.289
		C33.661,17.781,32.263,16.745,31.998,16.215"/>
	<path clip-path="url(#SVGID_2_)" d="M39.5,16.329c0,0-1.051,1.279-1.09,1.338c-0.039,0.059-0.167,0.343,0.186,0.294
		c0.352-0.049,1.115-0.225,1.223-0.284c0.107-0.059,0.07-0.197-0.118-0.176c-0.205,0.022-0.685,0.049-0.988,0.107l0.844-1.265
		C39.557,16.343,39.584,16.224,39.5,16.329"/>
	<path clip-path="url(#SVGID_2_)" d="M36.356,22.444c0,0,0.813-0.353,1.093-1.012c0.281-0.659,0.037-0.916-0.442-0.982
		c-0.479-0.066-1.346-0.03-1.744,0.341c-0.398,0.37-0.344,0.732-0.054,0.957C35.498,21.974,36.058,22.354,36.356,22.444"/>
	<path clip-path="url(#SVGID_2_)" fill="#F06351" d="M35.95,23.699c0,0-0.181,0.374-0.46,0.597c-0.245,0.194-0.57,0.364-1.022,0.388
		c-0.641,0.033-1.06-0.17-1.457-0.447c-0.204-0.142-0.397-0.256-0.535-0.444c-0.157-0.182-0.357-0.254-0.357-0.254
		s0.75,4.116,2.576,4.766c1.825,0.651,2.151-0.752,2.209-1.137c0.048-0.327,0-2.091-0.824-3.237
		C36.066,23.627,36.05,23.831,35.95,23.699"/>
	<path clip-path="url(#SVGID_2_)" d="M34.302,24.837h-0.016c-1.297-0.011-2.3-1.366-2.342-1.424
		c-0.047-0.064-0.033-0.155,0.032-0.202c0.064-0.047,0.155-0.033,0.201,0.032c0.01,0.012,0.961,1.296,2.113,1.305h0.012
		c0.586,0,1.136-0.335,1.634-0.994l0.143-0.189l0.102,0.214c0.004,0.007,0.375,0.758,0.993,0.797
		c0.498,0.031,1.057-0.413,1.622-1.284c0.044-0.067,0.133-0.086,0.2-0.042c0.067,0.044,0.086,0.133,0.042,0.2
		c-0.635,0.978-1.269,1.453-1.884,1.414c-0.565-0.036-0.945-0.496-1.122-0.767C35.511,24.521,34.929,24.837,34.302,24.837"/>
	<path clip-path="url(#SVGID_2_)" fill="#FDC305" d="M32.795,35.993c-0.798-1.911,0.104-4.107,2.015-4.906
		c1.911-0.798,4.107,0.104,4.905,2.015c0.799,1.911-0.103,4.108-2.014,4.906S33.593,37.904,32.795,35.993"/>
	<path clip-path="url(#SVGID_2_)" fill="#111111" d="M41.233,31.504L38.1,32.813l1.15-5.636l-7.502,9.762l3.134-1.308l-1.15,5.635
		L41.233,31.504z M33.845,35.327l4.131-5.408l-0.806,4.019l1.967-0.821l-4.132,5.408l0.807-4.02L33.845,35.327z"/>
	<path clip-path="url(#SVGID_2_)" fill="#111111" d="M31.4,33.175c-0.239-0.572,0.031-1.23,0.604-1.47
		c0.572-0.238,1.23,0.032,1.469,0.604c0.24,0.573-0.031,1.23-0.603,1.47C32.297,34.018,31.639,33.748,31.4,33.175"/>
	<path clip-path="url(#SVGID_2_)" fill="#111111" d="M38.226,37.441c-0.169-0.405,0.022-0.87,0.427-1.039s0.87,0.022,1.039,0.427
		c0.169,0.404-0.022,0.87-0.427,1.039C38.86,38.037,38.395,37.845,38.226,37.441"/>
	<path clip-path="url(#SVGID_2_)" fill="#111111" d="M39.601,35.532c-0.074-0.177,0.01-0.38,0.187-0.455
		c0.177-0.074,0.381,0.01,0.455,0.187s-0.01,0.381-0.187,0.455C39.879,35.793,39.675,35.709,39.601,35.532"/>
	<path clip-path="url(#SVGID_2_)" fill="#F06351" d="M45.876,21.16c0,0-2.554,2.254-5.084,5.212
		c-2.53,2.958-5.313,4.895-5.313,4.895c-0.217-0.528-1.626-1.514-1.626-1.514s-3.144-2.149-5.205-3.839
		c-1.184-0.971-2.355-2.175-3.138-3.024c-0.293-0.015-1.07-0.057-2.014-0.109c4.711,6.998,12.019,8.838,12.019,8.838
		c0.868-0.141,3.289-1.866,5.096-3.275c1.807-1.409,4.771-4.543,5.964-5.916c0.603-0.695,0.947-1.426,1.14-1.978
		C46.602,20.834,45.876,21.16,45.876,21.16"/>
	<polygon clip-path="url(#SVGID_2_)" fill="#FDC305" points="65.218,3.498 56.763,12.942 55.545,10.944 63.693,0 	"/>
	<polygon clip-path="url(#SVGID_2_)" fill="#FDC305" points="62.646,17.258 68.195,13.147 67.406,9.413 62.004,14.225 	"/>
	<polygon clip-path="url(#SVGID_2_)" fill="#FDC305" points="59.924,49.366 66.053,52.552 69.063,50.206 62.369,47.462 	"/>
	<polygon clip-path="url(#SVGID_2_)" fill="#FDC305" points="1.954,5.975 5.018,2.614 14.313,11.613 13.087,13.89 	"/>
	<polygon clip-path="url(#SVGID_2_)" fill="#FDC305" points="7.382,16.283 2.68,13.154 0.275,17.014 5.43,19.416 	"/>
	<polygon clip-path="url(#SVGID_2_)" fill="#FDC305" points="13.907,52.551 9.359,55.901 12.165,59.48 16.184,55.456 	"/>
	<path clip-path="url(#SVGID_2_)" fill="#F06351" d="M25.926,27.973c0,0-3.807-1.446-5.205-1.831
		c-1.397-0.386-2.265-0.675-4.047,0.626c-1.784,1.302-1.735,3.855-1.735,3.855s0.433,0.964,0.482,1.446
		c0.047,0.482-1.205,0.434-2.024,0.434c-0.82,0-0.916-1.446-0.29-3.133c0.627-1.686,1.928-3.71,1.928-3.71
		C9.59,28.503,0,35.057,0,35.057s2.939-0.289,8.192,0.241s4.963,4.674,4.963,4.674s3.519-0.964,5.639-1.108
		c2.12-0.145,2.265,2.121,2.265,2.121l0.53,3.854c0,0,0.482-0.626,2.65-2.361c1.862-1.489,3.886-1.361,4.385-1.301c0,0,0.001,0,0,0
		L25.926,27.973z"/>
	<path clip-path="url(#SVGID_2_)" fill="#111111" d="M85.657,42.035c-0.932-1.199-1.398-2.929-1.398-5.19v-7.507
		c0-2.312,0.462-4.06,1.385-5.242c0.924-1.182,2.507-1.773,4.751-1.773c2.139,0,3.654,0.522,4.543,1.566
		c0.888,1.044,1.333,2.542,1.333,4.491v1.76h-4.142v-1.941c0-0.622-0.031-1.122-0.091-1.502c-0.061-0.379-0.215-0.694-0.466-0.945
		c-0.249-0.249-0.634-0.375-1.151-0.375c-0.777,0-1.278,0.251-1.502,0.751c-0.224,0.501-0.336,1.234-0.336,2.2v9.526
		c0,0.985,0.129,1.717,0.388,2.201c0.259,0.483,0.742,0.725,1.45,0.725c0.725,0,1.19-0.246,1.398-0.738
		c0.206-0.492,0.31-1.221,0.31-2.188v-2.045h4.142v1.735c0,2.002-0.44,3.552-1.32,4.646c-0.881,1.097-2.399,1.644-4.556,1.644
		C88.168,43.834,86.59,43.235,85.657,42.035"/>
	<path clip-path="url(#SVGID_2_)" fill="#111111" d="M101.914,22.581h4.736l4.039,20.968h-3.935l-0.776-4.608h-3.313l-0.803,4.608
		h-4.013L101.914,22.581z M105.563,36.301l-1.268-8.439l-1.242,8.439H105.563z"/>
	<polygon clip-path="url(#SVGID_2_)" fill="#111111" points="113.718,25.739 110.482,25.739 110.482,22.581 121.199,22.581 
		121.199,25.739 118.015,25.739 118.015,43.549 113.718,43.549 	"/>
	<polygon clip-path="url(#SVGID_2_)" fill="#444444" points="129.612,22.581 137.74,22.581 137.74,24.756 132.536,24.756 
		132.536,31.693 136.756,31.693 136.756,33.764 132.536,33.764 132.536,41.453 137.792,41.453 137.792,43.549 129.612,43.549 	"/>
	<polygon clip-path="url(#SVGID_2_)" fill="#444444" points="140.148,22.581 142.141,22.581 148.094,36.508 148.094,22.581 
		150.528,22.581 150.528,43.549 148.663,43.549 142.632,29.234 142.632,43.549 140.148,43.549 	"/>
	<polygon clip-path="url(#SVGID_2_)" fill="#444444" points="153.815,22.581 161.943,22.581 161.943,24.756 156.739,24.756 
		156.739,31.693 160.959,31.693 160.959,33.764 156.739,33.764 156.739,41.453 161.995,41.453 161.995,43.549 153.815,43.549 	"/>
	<path clip-path="url(#SVGID_2_)" fill="#444444" d="M164.352,22.581h4.22c2.123,0,3.679,0.436,4.672,1.307
		c0.992,0.872,1.488,2.291,1.488,4.258c0,2.692-0.863,4.323-2.59,4.893l2.977,10.51h-2.821l-2.744-9.837h-2.278v9.837h-2.924V22.581
		z M168.39,31.615c1.26,0,2.161-0.25,2.705-0.751c0.543-0.5,0.816-1.406,0.816-2.718c0-0.863-0.096-1.539-0.286-2.031
		c-0.19-0.493-0.527-0.855-1.008-1.088c-0.484-0.233-1.166-0.349-2.045-0.349h-1.296v6.937H168.39z"/>
	<path clip-path="url(#SVGID_2_)" fill="#444444" d="M178.666,42.008c-0.845-1.199-1.269-2.98-1.269-5.345v-7.015
		c0-1.622,0.169-2.955,0.505-4c0.337-1.043,0.914-1.846,1.736-2.407c0.818-0.561,1.945-0.841,3.378-0.841
		c1.932,0,3.326,0.491,4.18,1.475c0.855,0.984,1.282,2.529,1.282,4.633v0.777h-2.745v-0.647c0-1-0.06-1.773-0.179-2.317
		c-0.122-0.543-0.377-0.953-0.765-1.229c-0.389-0.276-0.963-0.415-1.722-0.415c-0.81,0-1.416,0.186-1.811,0.558
		c-0.398,0.37-0.653,0.866-0.764,1.487c-0.113,0.621-0.169,1.45-0.169,2.486v7.766c0,1.604,0.195,2.757,0.582,3.456
		c0.39,0.698,1.136,1.048,2.24,1.048c1.086,0,1.834-0.379,2.24-1.139c0.405-0.759,0.608-1.977,0.608-3.649v-1.451h-2.666v-2.07
		h5.306v10.38h-1.837l-0.286-2.407c-0.656,1.777-1.899,2.666-3.728,2.666C180.885,43.808,179.513,43.208,178.666,42.008"/>
	<polygon clip-path="url(#SVGID_2_)" fill="#444444" points="194.689,36.146 190.16,22.582 192.877,22.582 196.087,32.703 
		199.247,22.582 201.99,22.582 197.485,36.146 197.485,43.55 194.689,43.55 	"/>
</g>
</svg>
