<svg xmlns="http://www.w3.org/2000/svg" xmlns:xlink="http://www.w3.org/1999/xlink" width="134.074" height="56.157">
    <defs>
        <path id="a" d="M0 0h134.074v56.157H0z"/>
    </defs>
    <clipPath id="b">
        <use xlink:href="#a" overflow="visible"/>
    </clipPath>
    <path clip-path="url(#b)" d="M123.118 5.757c1.2-1.9 2.7-3.4 4.5-4.6 1-.7 1.601-.7 2.2.6.8 1.9 1.5 3.9.901 6-.201.8-.101 1.4.399 2.1.601.8 1.101 1.6 1.601 2.3 1.299 1.9 1.799 3.9.899 6.2-.399 1-.399 2-.199 3.1.199 1 .199 2 0 3-.301 1.6-1.101 2.7-2.7 3.2-1.3.3-2.401.9-3.201 2-.2.3-.5.5-.9.5-1.199.201-4.199-2.5-4.199-3.7v-.6c.099-3.6-.101-3.9-3.401-5.4-.7-.3-1.299-.6-1.799-1.2-.601-.8-1.401-.7-2.3-.4-.801.4-1.401.9-1.301 1.9.301 2.4.4 4.8.301 7.3 0 .3.099.6.199.8 3.101 4.501 4.301 9.8 5.801 14.9 1.199 3.9 3.399 6 7.399 6.3.601 0 1.3.2 1.901.301 1.799.299 2.899 1.5 3.399 3.199.7 2.1.301 2.6-1.8 2.6h-6.5c-.899 0-1.599-.2-2.3-.799-1-1-2.2-1.401-3.4-2-1.3-.601-2.6-1.301-3.399-2.601-1.101-1.7-2.601-3.1-4-4.5-2.8-2.899-5.8-5.7-8.401-8.7-1.899-2.199-3.2-4.6-3.2-7.6 0-.9-.199-1.3-1.199-.9-.301.2-.7.301-1 .301-2.801 0-4.2 1.699-5.2 4.199-.901 2.1-2.101 4.1-3.201 6.2-.5 1.101-1 2.601-1 4.2 0 2.401.6 3.2 2.8 4 1.401.5 2.7 1 3.401 2.401.799 1.599.599 2-1.101 2.099h-6.8c-.899 0-1.5-.3-1.899-1.099l-1.801-3c-1-1.701-1.399-3.401-.699-5.401.599-1.7.3-3.599.099-5.3-.4-2.6 0-4.9 1.701-7 .599-.7.599-1-.401-1.2-4.099-.8-8-2.3-11.8-4.1 0 0-.099 0-.099-.1-3.2-1.2-3.801-1-4.7 2.3-.801 2.801-1.601 5.6-2.201 8.5-.7 3.2.1 6.2 1.1 9.2.4 1.2 1.601 1.101 2.5 1.4 2 .6 3.7 1.4 4.5 3.5.7 1.6.601 1.8-1.1 1.8-1.7 0-3.4-.099-5.2 0-1.599.1-2.8-.5-4.2-1.4-4.8-3.199-6.2-8.1-6.6-13.4-.2-3.299-2-5.9-4.1-8.4-.4-.5-.8-.7-1.4-.3-2.1 1.3-4.5 2.1-6.7 3-4.8 1.8-9 4.6-12.2 8.8-1.2 1.5-1.899 3.2-2.2 5.101-.3 1.799.2 2.599 2 3.099 1.9.6 2.7 1.5 2.9 3.401.1.799-.2 1.199-1 1.199h-8.099c-.601 0-1-.4-1.301-.8-1.3-1.6-1.9-3.5-1.9-5.5-.1-3.5.3-6.899.9-10.3.4-2.099 1.4-3.8 3.4-4.8 5.901-2.8 9-8.1 11.8-13.6.601-1.1.101-1.3-.899-1.2-2.901.3-5.401 1.6-7.701 3.2-3 2.1-5.7 4.6-8.299 7.1-2.901 2.701-6.201 4.6-10.301 4.9-7.3.4-10.699-3.7-10.4-10.3.1-2.3.9-4.4 2.4-6.1 1.2-1.3 2.6-2 4.5-1.5 1.5.4 1.9 1.2 1.301 2.7-.301.6-.701 1.1-1 1.7-.401.6-.801 1.3-1 2-1.101 3 .399 5.1 3.5 5.4 3.299.3 6-1.1 8.5-3.1 3-2.4 5.699-5.2 8-8.3 3.699-4.8 8.5-7.3 14.399-8.1 2.3-.3 4.3-1.3 6.5-1.9 4.101-1.2 8.3-1.9 12.7-1.8 2 .1 3.901-.3 5.8-1.1 4.9-2 10-2 15.101-1 4 .8 8 1.8 11.899 2.8 2.2.5 4.7.3 7-.2 4.4-1 8.9-1.9 13.4-2 3-.1 5.901.4 8.6 1.7 2 .9 2 .9 1.5 2.8"/>
</svg>
