<svg xmlns="http://www.w3.org/2000/svg" width="70" height="97">
    <path d="M54.845 0h-.381c-.681.352-1.088.943-1.437 1.594-.586 1.093-1.004 2.254-1.317 3.444-.213.81-.653 1.197-1.481 1.34-2.337.403-4.041 1.729-5.23 3.743-.742 1.256-1.319 2.588-1.845 3.945-1.428 3.683-2.519 7.48-3.85 11.195-.636 1.774-.662 1.751-2.567 1.769-2.265.022-2.107-.353-2.141 2.146-.011.792.24 1.192 1.08 1.152.26-.012.652-.131.75.215.082.288-.239.488-.431.69-1.193 1.256-2.686 1.988-4.338 2.433-1.898.51-3.832.909-5.691 1.533-4.741 1.591-9.137 3.813-12.554 7.574-2.085 2.296-3.519 5.017-4.738 7.841-3.715 8.603-5.454 17.708-6.839 26.899C1.186 81.818.73 86.148.376 90.485.2 92.652-.029 94.82.003 97h33.324c.117-.461-.074-.874-.232-1.281-.678-1.754-2.069-2.668-3.827-3.073-.694-.16-.783-.368-.351-.915.732-.928 1.214-1.996 1.591-3.105 1.633-4.806 2.263-9.822 3.051-14.799.601-3.799 1.499-7.475 3.477-10.828 1.462-2.478 3.295-4.626 5.595-6.372.831-.631.857-.631.999.44.095.717.12 1.443.164 2.166.289 4.728.263 9.453-.172 14.171-.34 3.679-.475 7.353-.153 11.044.37 4.253 1.154 8.426 2.235 12.551h13.33c-.323-2.194-2.104-4.026-4.241-4.441-1.283-.25-2.528-.081-3.768.202-.598.137-.848.03-.898-.649-.396-5.318-.125-10.604.961-15.819 1.256-6.025 2.438-12.062 3.065-18.184.261-2.543 1.034-4.826 2.274-7.027 1.194-2.119 2.233-4.324 3.405-6.455.929-1.689 1.106-3.397.415-5.19-.272-.707-.53-1.423-.862-2.102-.956-1.958-1.971-3.888-2.914-5.852-.488-1.016-.387-1.124.709-1.148 1.631-.035 1.631-.035 1.657-1.643.004-.221-.005-.442-.001-.663.014-.688-.256-1.069-1.015-1.013-.505.037-1.015 0-1.523.01-.692.013-.891-.288-.722-.955.579-2.28 2.779-4.149 5.136-4.436 2.239-.272 4.428.044 6.612.431.649.115 1.006-.026 1.251-.64.398-.997.847-1.974 1.289-2.952.185-.409.199-.767-.093-1.145-3.178-4.106-6.641-7.9-11.37-10.306-.496-.252-.771-.575-.888-1.126-.3-1.42-.651-2.83-1.268-4.158-.321-.696-.695-1.348-1.4-1.738z"/>
</svg>
