<svg xmlns="http://www.w3.org/2000/svg" xmlns:xlink="http://www.w3.org/1999/xlink" width="201.99" height="59.48">
    <defs>
        <path id="a" d="M0 0h201.99v59.48H0z"/>
    </defs>
    <clipPath id="b">
        <use xlink:href="#a" overflow="visible"/>
    </clipPath>
    <path clip-path="url(#b)" d="M59.885 23.994c-5.453-13.049-20.451-19.209-33.5-13.756-13.05 5.451-19.209 20.45-13.757 33.5 3.586 8.584 11.303 14.186 19.879 15.463-.58-2.09-1.163-4.4-1.692-6.855 1.499.991 3.089 1.805 4.77 2.555l-.021.01s.119 2.157.28 4.566a25.445 25.445 0 0 0 5.347-.479c-.043-.157-.043-.405.011-.761.287-1.863 1.093-5.237 1.249-7.408a15.251 15.251 0 0 0 2.9-3.713l-.004.037-.055.433c-.554 4.265-1.704 8.814-2.403 10.071a5.776 5.776 0 0 1-.83 1.154 25.832 25.832 0 0 0 4.068-1.317c13.05-5.452 19.209-20.45 13.758-33.5m-1.479 3.786c-.434.434-1.349.723-1.494-.578-.144-1.301-.193-2.217-.193-2.217s-1.927-3.421-2.65-3.47c-.723-.047-5.831 3.47-7.18 4.964-1.165 1.289-1.398 1.205-1.398 3.47 0 1.713.221 8.166.099 13.108l-8.146 2.168c-5.976 1.59-7.807 1.783-7.807 1.783l-1.012-5.831h-.002l-.04-.007-.002-.001-.035-.005a2.223 2.223 0 0 0-.049-.006l-2.57-13.185s-3.808-1.446-5.205-1.831c-1.398-.386-2.265-.675-4.048.626-1.783 1.302-1.735 3.855-1.735 3.855s.434.964.482 1.446c.048.482-1.205.434-2.024.434s-.916-1.446-.289-3.133c.626-1.686 1.927-3.71 1.927-3.71s1.205-2.265 2.073-2.892c0 0 .144-.337 1.253-.24 1.108.096 7.276.433 7.276.433l.054-2.275a144.285 144.285 0 0 1 20.244-1.336c-.01.608-.029 1.218-.058 1.828 0 0 4.385-2.024 8.144-1.976 0 0 .434-.048.771.386s2.409 2.988 2.651 3.373c.24.386 1.204 1.735 1.831 3.036 0 0-.434 1.349-.868 1.783"/>
    <path clip-path="url(#b)" d="M56.455 21.673c.474.598.887 1.129.987 1.289.241.385 1.205 1.734 1.831 3.036 0 0-.433 1.349-.867 1.782-.434.435-1.349.724-1.494-.578-.145-1.301-.193-2.216-.193-2.216s-1.928-3.422-2.65-3.47c-.723-.048-5.831 3.47-7.18 4.964-1.165 1.289-1.398 1.204-1.398 3.469 0 1.502.17 6.65.129 11.226 1.81.209 4.466.71 5.268 1.882 0 0-.289-7.18 7.807-3.422 0 0 .289-9.782 11.469-7.276 0 0-5.668-6.959-13.709-10.686M45.935 19.351c.146-8.514-1.407-16.532-1.407-16.532s-.145-1.301-.868-.241-1.204 3.951-1.204 3.951c-7.47-.433-12.819.338-12.819.338-.819-2.747-2.217-3.952-2.891-3.663-.675.289-.723 3.325-.723 3.325l-.332 14.158a144.295 144.295 0 0 1 20.244-1.336"/>
    <path clip-path="url(#b)" d="M45.351 47.117c.126-1.065.2-2.485.239-4.06 0 0-2.171.579-8.146 2.168-5.976 1.59-7.807 1.784-7.807 1.784l1.109 5.011c.022.11.046.218.069.326 1.499.992 3.089 1.805 4.77 2.555 4.372-2.164 6.87-4.134 6.87-4.134a1.421 1.421 0 0 1-.004.063 15.27 15.27 0 0 0 2.9-3.713"/>
    <path clip-path="url(#b)" d="M31.998 16.215c-.046-.091 1.026.684 1.412.924.385.242.612.426.612.594 0 .169-.265.337-.627.337-.361 0-.915-.12-.963-.265 0 0 .602-.024.94-.024h.289s-1.398-1.036-1.663-1.566M39.5 16.329s-1.051 1.279-1.09 1.338c-.039.059-.167.343.186.294.352-.049 1.115-.225 1.223-.284.107-.059.07-.197-.118-.176-.205.022-.685.049-.988.107l.844-1.265s.027-.119-.057-.014M36.356 22.444s.813-.353 1.093-1.012c.281-.659.037-.916-.442-.982-.479-.066-1.346-.03-1.744.341-.398.37-.344.732-.054.957.289.226.849.606 1.147.696"/>
    <path clip-path="url(#b)" d="M35.95 23.699s-.181.374-.46.597c-.245.194-.57.364-1.022.388-.641.033-1.06-.17-1.457-.447-.204-.142-.397-.256-.535-.444a.954.954 0 0 0-.357-.254s.75 4.116 2.576 4.766c1.825.651 2.151-.752 2.209-1.137.048-.327 0-2.091-.824-3.237-.014-.304-.03-.1-.13-.232"/>
    <path clip-path="url(#b)" d="M34.302 24.837h-.016c-1.297-.011-2.3-1.366-2.342-1.424a.144.144 0 1 1 .233-.17c.01.012.961 1.296 2.113 1.305h.012c.586 0 1.136-.335 1.634-.994l.143-.189.102.214c.004.007.375.758.993.797.498.031 1.057-.413 1.622-1.284a.144.144 0 0 1 .2-.042.144.144 0 0 1 .042.2c-.635.978-1.269 1.453-1.884 1.414-.565-.036-.945-.496-1.122-.767-.521.624-1.103.94-1.73.94"/>
    <path clip-path="url(#b)" d="M32.795 35.993a3.751 3.751 0 1 1 6.923-2.89 3.751 3.751 0 0 1-6.923 2.89"/>
    <path clip-path="url(#b)" d="M41.233 31.504L38.1 32.813l1.15-5.636-7.502 9.762 3.134-1.308-1.15 5.635 7.501-9.762zm-7.388 3.823l4.131-5.408-.806 4.019 1.967-.821-4.132 5.408.807-4.02-1.967.822zM31.4 33.175a1.124 1.124 0 1 1 2.075-.866 1.124 1.124 0 0 1-2.075.866M38.226 37.441a.794.794 0 1 1 1.465-.612.794.794 0 0 1-1.465.612M39.601 35.532a.349.349 0 0 1 .642-.268.348.348 0 0 1-.642.268"/>
    <path clip-path="url(#b)" d="M45.876 21.16s-2.554 2.254-5.084 5.212c-2.53 2.958-5.313 4.895-5.313 4.895-.217-.528-1.626-1.514-1.626-1.514s-3.144-2.149-5.205-3.839c-1.184-.971-2.355-2.175-3.138-3.024l-2.014-.109c4.711 6.998 12.019 8.838 12.019 8.838.868-.141 3.289-1.866 5.096-3.275 1.807-1.409 4.771-4.543 5.964-5.916a6.104 6.104 0 0 0 1.14-1.978c-1.113.384-1.839.71-1.839.71"/>
    <path clip-path="url(#b)" d="M65.218 3.498l-8.455 9.444-1.218-1.998L63.693 0zM62.646 17.258l5.549-4.111-.789-3.734-5.402 4.812zM59.924 49.366l6.129 3.186 3.01-2.346-6.694-2.744zM1.954 5.975l3.064-3.361 9.295 8.999-1.226 2.277zM7.382 16.283L2.68 13.154l-2.405 3.86 5.155 2.402zM13.907 52.551l-4.548 3.35 2.806 3.579 4.019-4.024z"/>
    <path clip-path="url(#b)" d="M25.926 27.973s-3.807-1.446-5.205-1.831c-1.397-.386-2.265-.675-4.047.626-1.784 1.302-1.735 3.855-1.735 3.855s.433.964.482 1.446c.047.482-1.205.434-2.024.434-.82 0-.916-1.446-.29-3.133.627-1.686 1.928-3.71 1.928-3.71C9.59 28.503 0 35.057 0 35.057s2.939-.289 8.192.241 4.963 4.674 4.963 4.674 3.519-.964 5.639-1.108c2.12-.145 2.265 2.121 2.265 2.121l.53 3.854s.482-.626 2.65-2.361c1.862-1.489 3.886-1.361 4.385-1.301 0 0 .001 0 0 0l-2.698-13.204z"/>
    <path clip-path="url(#b)" d="M85.657 42.035c-.932-1.199-1.398-2.929-1.398-5.19v-7.507c0-2.312.462-4.06 1.385-5.242.924-1.182 2.507-1.773 4.751-1.773 2.139 0 3.654.522 4.543 1.566.888 1.044 1.333 2.542 1.333 4.491v1.76h-4.142v-1.941c0-.622-.031-1.122-.091-1.502a1.672 1.672 0 0 0-.466-.945c-.249-.249-.634-.375-1.151-.375-.777 0-1.278.251-1.502.751-.224.501-.336 1.234-.336 2.2v9.526c0 .985.129 1.717.388 2.201.259.483.742.725 1.45.725.725 0 1.19-.246 1.398-.738.206-.492.31-1.221.31-2.188v-2.045h4.142v1.735c0 2.002-.44 3.552-1.32 4.646-.881 1.097-2.399 1.644-4.556 1.644-2.227 0-3.805-.599-4.738-1.799M101.914 22.581h4.736l4.039 20.968h-3.935l-.776-4.608h-3.313l-.803 4.608h-4.013l4.065-20.968zm3.649 13.72l-1.268-8.439-1.242 8.439h2.51zM113.718 25.739h-3.236v-3.158h10.717v3.158h-3.184v17.81h-4.297z"/>
    <path clip-path="url(#b)" d="M129.612 22.581h8.128v2.175h-5.204v6.937h4.22v2.071h-4.22v7.689h5.256v2.096h-8.18zM140.148 22.581h1.993l5.953 13.927V22.581h2.434v20.968h-1.865l-6.031-14.315v14.315h-2.484zM153.815 22.581h8.128v2.175h-5.204v6.937h4.22v2.071h-4.22v7.689h5.256v2.096h-8.18zM164.352 22.581h4.22c2.123 0 3.679.436 4.672 1.307.992.872 1.488 2.291 1.488 4.258 0 2.692-.863 4.323-2.59 4.893l2.977 10.51h-2.821l-2.744-9.837h-2.278v9.837h-2.924V22.581zm4.038 9.034c1.26 0 2.161-.25 2.705-.751.543-.5.816-1.406.816-2.718 0-.863-.096-1.539-.286-2.031a1.953 1.953 0 0 0-1.008-1.088c-.484-.233-1.166-.349-2.045-.349h-1.296v6.937h1.114zM178.666 42.008c-.845-1.199-1.269-2.98-1.269-5.345v-7.015c0-1.622.169-2.955.505-4 .337-1.043.914-1.846 1.736-2.407.818-.561 1.945-.841 3.378-.841 1.932 0 3.326.491 4.18 1.475.855.984 1.282 2.529 1.282 4.633v.777h-2.745v-.647c0-1-.06-1.773-.179-2.317-.122-.543-.377-.953-.765-1.229-.389-.276-.963-.415-1.722-.415-.81 0-1.416.186-1.811.558-.398.37-.653.866-.764 1.487-.113.621-.169 1.45-.169 2.486v7.766c0 1.604.195 2.757.582 3.456.39.698 1.136 1.048 2.24 1.048 1.086 0 1.834-.379 2.24-1.139.405-.759.608-1.977.608-3.649v-1.451h-2.666v-2.07h5.306v10.38h-1.837l-.286-2.407c-.656 1.777-1.899 2.666-3.728 2.666-1.897 0-3.269-.6-4.116-1.8M194.689 36.146l-4.529-13.564h2.717l3.21 10.121 3.16-10.121h2.743l-4.505 13.564v7.404h-2.796z"/>
</svg>
