<svg xmlns="http://www.w3.org/2000/svg" xmlns:xlink="http://www.w3.org/1999/xlink" width="33.32" height="37.614">
    <defs>
        <path id="a" d="M0 0h33.32v37.614H0z"/>
    </defs>
    <clipPath id="b">
        <use xlink:href="#a" overflow="visible"/>
    </clipPath>
    <path clip-path="url(#b)" d="M6.07 20.724l.053-2.266a143.633 143.633 0 0 1 20.165-1.331c-.01.606-.029 1.213-.058 1.821 0 0 2.923-1.349 6.036-1.814-2.367-6.323-8.464-10.825-15.613-10.825-8.323 0-15.221 6.102-16.466 14.076 2.172.136 5.883.339 5.883.339M27.239 24.228c-1.16 1.284-1.392 1.2-1.392 3.456 0 .908.028 4.898.036 9.172 4.483-2.987 7.438-8.088 7.438-13.879 0-1.052-.099-2.081-.285-3.079-1.814 1.064-4.813 3.239-5.797 4.33M6.359 25.715s-3.792-1.44-5.184-1.824c-.427-.118-.805-.226-1.174-.283.225 6.048 3.673 11.273 8.677 14.005L6.359 25.715z"/>
    <path clip-path="url(#b)" d="M26.295 17.122C26.44 8.642 24.893.655 24.893.655s-.144-1.296-.864-.241c-.72 1.057-1.2 3.937-1.2 3.937-7.44-.433-12.768.335-12.768.335C9.245 1.951 7.853.75 7.181 1.039c-.672.288-.72 3.312-.72 3.312L6.13 18.453a143.623 143.623 0 0 1 20.165-1.331"/>
    <path clip-path="url(#b)" d="M12.413 13.998c-.046-.091 1.022.681 1.406.921.384.24.61.423.61.591s-.264.336-.624.336-.912-.12-.96-.264c0 0 .6-.024.936-.024h.288s-1.392-1.032-1.656-1.56M19.885 14.111s-1.047 1.274-1.086 1.333-.165.341.185.292c.351-.048 1.111-.224 1.219-.282.107-.059.069-.196-.117-.176-.205.022-.682.049-.985.107l.841-1.26s.026-.119-.057-.014M16.754 20.202s.81-.351 1.089-1.008c.279-.657.036-.912-.441-.978-.477-.066-1.341-.03-1.737.339s-.342.729-.054.954.846.603 1.143.693"/>
    <path clip-path="url(#b)" d="M16.349 21.453s-.18.372-.458.594a1.724 1.724 0 0 1-1.018.387c-.638.033-1.056-.169-1.452-.445-.202-.142-.395-.255-.532-.442a.944.944 0 0 0-.356-.253s.747 4.099 2.566 4.747c1.817.648 2.143-.75 2.2-1.133.048-.326 0-2.082-.82-3.224-.015-.303-.031-.1-.13-.231"/>
    <path clip-path="url(#b)" d="M14.708 22.587h-.016c-1.293-.011-2.291-1.361-2.333-1.418a.144.144 0 1 1 .233-.17c.01.013.956 1.291 2.104 1.3h.012c.584 0 1.132-.333 1.627-.99l.143-.189.102.213c.004.007.373.756.989.795.496.03 1.052-.412 1.616-1.279a.144.144 0 0 1 .199-.042.145.145 0 0 1 .042.199c-.633.974-1.265 1.448-1.877 1.409-.563-.036-.942-.495-1.117-.765-.519.621-1.099.937-1.724.937"/>
    <path clip-path="url(#b)" d="M26.236 18.924s-2.544 2.245-5.064 5.191c-2.52 2.947-5.292 4.876-5.292 4.876-.216-.526-1.62-1.508-1.62-1.508s-3.132-2.14-5.184-3.824c-1.179-.967-2.346-2.166-3.126-3.011l-2.006-.109c4.692 6.969 11.972 8.802 11.972 8.802.864-.14 3.276-1.858 5.076-3.262 1.8-1.403 4.752-4.525 5.94-5.892a6.07 6.07 0 0 0 1.136-1.971c-1.109.383-1.832.708-1.832.708"/>
</svg>
